<?xml version="1.0" standalone="no"?>
<!DOCTYPE svg PUBLIC "-//W3C//DTD SVG 20010904//EN"
 "http://www.w3.org/TR/2001/REC-SVG-20010904/DTD/svg10.dtd">
<svg version="1.0" xmlns="http://www.w3.org/2000/svg"
 width="512.000000pt" height="512.000000pt" viewBox="0 0 512.000000 512.000000"
 preserveAspectRatio="xMidYMid meet">
<metadata>
Created by potrace 1.14, written by Peter Selinger 2001-2017
</metadata>
<g transform="translate(0.000000,512.000000) scale(0.100000,-0.100000)"
fill="#000000" stroke="none">
<path d="M3389 5106 c-130 -37 -259 -135 -303 -233 l-18 -41 882 -882 883
-883 41 20 c97 48 189 162 225 281 25 82 22 217 -8 293 -33 86 -69 133 -210
274 -72 72 -131 133 -131 137 0 3 34 41 75 83 91 94 128 149 154 228 102 312
-137 632 -464 621 -132 -4 -228 -51 -354 -173 -46 -45 -87 -81 -90 -81 -4 0
-65 59 -136 131 -141 141 -188 177 -274 210 -69 26 -206 33 -272 15z"/>
<path d="M2564 4819 c-64 -40 -132 -112 -166 -175 -82 -152 -72 -351 25 -493
39 -57 1671 -1689 1728 -1728 99 -68 252 -98 369 -72 114 25 246 121 305 222
l28 49 -1114 1114 c-613 613 -1116 1114 -1120 1114 -3 0 -27 -14 -55 -31z"/>
<path d="M2226 2894 l-508 -507 335 -335 335 -335 508 507 507 508 -335 335
-335 335 -507 -508z"/>
<path d="M585 2765 c-46 -13 -123 -48 -154 -70 -38 -27 -112 -108 -136 -150
l-28 -47 1116 -1115 1115 -1116 48 28 c235 138 303 446 150 674 -38 58 -1669
1689 -1730 1731 -26 17 -73 41 -104 52 -73 26 -209 33 -277 13z"/>
<path d="M240 2031 c-135 -72 -229 -225 -236 -386 -4 -99 7 -151 51 -240 28
-58 58 -94 174 -210 78 -77 141 -143 141 -146 0 -4 -36 -44 -81 -90 -44 -46
-92 -102 -105 -125 -124 -212 -73 -477 120 -623 91 -68 182 -96 303 -94 126 3
226 50 339 160 39 37 78 74 87 82 15 12 31 -1 152 -120 206 -203 260 -232 435
-232 120 -1 180 17 271 81 58 41 144 140 153 177 5 21 -102 133 -874 905 -484
484 -884 880 -888 880 -4 -1 -23 -9 -42 -19z"/>
</g>
</svg>
